<svg width="190" height="26" viewBox="0 0 190 26" fill="none" xmlns="http://www.w3.org/2000/svg">
<g clip-path="url(#clip0_581_2284)">
<path d="M27.2475 10.8984C27.2475 17.6309 21.7898 23.0886 15.0574 23.0886C8.32491 23.0886 2.86719 17.6309 2.86719 10.8984H0.831055C0.831055 18.7554 7.20039 25.1247 15.0574 25.1247C22.9143 25.1247 29.2837 18.7554 29.2837 10.8984H27.2475Z" fill="#0F0E0E"/>
<path d="M22.7545 10.8984C22.7545 15.142 19.3144 18.5821 15.0709 18.5821C10.8273 18.5821 7.38721 15.142 7.38721 10.8984H5.35107C5.35107 16.2665 9.70277 20.6182 15.0709 20.6182C20.439 20.6182 24.7907 16.2665 24.7907 10.8984H22.7545Z" fill="#0F0E0E"/>
<path d="M15.1863 14.1428C16.9781 14.1428 18.4306 12.6902 18.4306 10.8984H20.4668C20.4668 13.8148 18.1026 16.1789 15.1863 16.1789C12.2699 16.1789 9.90576 13.8148 9.90576 10.8984H11.9419C11.9419 12.6902 13.3944 14.1428 15.1863 14.1428Z" fill="#0F0E0E"/>
<path d="M15.1863 2.91579C13.3945 2.91579 11.9419 4.36834 11.9419 6.16016H9.9058C9.9058 3.24382 12.27 0.879659 15.1863 0.879659C18.1026 0.879659 20.4668 3.24382 20.4668 6.16016H18.4307C18.4307 4.36834 16.9781 2.91579 15.1863 2.91579Z" fill="#0F0E0E"/>
<rect x="0.831055" y="7.63867" width="28.4526" height="1.78303" fill="#0F0E0E"/>
<path d="M189.085 3.93359L182.929 12.7855L189.419 22.0669H185.888L181.211 15.2431L176.535 22.0669H173.027L179.469 12.7855L173.338 3.93359H176.869L181.211 10.328L185.578 3.93359H189.085Z" fill="#0F0E0E"/>
<path d="M155.46 13.0005C155.46 7.34573 159.349 3.48047 164.407 3.48047C169.466 3.48047 173.355 7.34573 173.355 13.0005C173.355 18.6552 169.466 22.5205 164.407 22.5205C159.349 22.5205 155.46 18.6552 155.46 13.0005ZM170.205 13.0005C170.205 8.87275 167.628 6.15275 164.407 6.15275C161.186 6.15275 158.609 8.87275 158.609 13.0005C158.609 17.1282 161.186 19.8482 164.407 19.8482C167.628 19.8482 170.205 17.1282 170.205 13.0005Z" fill="#0F0E0E"/>
<path d="M140.317 22.0669V3.93359H146.974C150.529 3.93359 152.605 6.12868 152.605 8.7771C152.605 10.161 151.937 11.3778 150.863 11.9743C152.605 12.5708 154.036 14.1455 154.036 16.5315C154.036 19.4901 151.531 22.0669 147.642 22.0669H140.317ZM147.642 13.6683H143.466V19.3946H147.642C149.622 19.3946 150.887 18.0824 150.887 16.5315C150.887 14.9806 149.622 13.6683 147.642 13.6683ZM146.974 6.60588H143.466V10.9961H146.974C148.572 10.9961 149.455 9.99394 149.455 8.7771C149.455 7.56026 148.572 6.60588 146.974 6.60588Z" fill="#0F0E0E"/>
<path d="M136.955 3.93359V22.0669H133.805V3.93359H136.955Z" fill="#0F0E0E"/>
<path d="M122.962 3.93359V19.3946H132.339V22.0669H119.812V3.93359H122.962Z" fill="#0F0E0E"/>
<path d="M107.84 14.0978V19.3946H117.455V22.0669H104.69V3.93359H117.074V6.60588H107.84V11.4494H115.451V14.0978H107.84Z" fill="#0F0E0E"/>
<path d="M87.2617 3.93359H92.3438C98.094 3.93359 101.935 7.84658 101.935 13.0003C101.935 18.1539 98.094 22.0669 92.3438 22.0669H87.2617V3.93359ZM92.3438 6.60588H90.4112V19.3946H92.3438C96.1852 19.3946 98.7859 16.6985 98.7859 13.0003C98.7859 9.30202 96.1852 6.60588 92.3438 6.60588Z" fill="#0F0E0E"/>
<path d="M69.1333 3.93359H72.4259L76.7445 12.1413L77.2694 13.1911L77.7944 12.1413L82.1607 3.93359H85.4533L78.868 15.7441V22.0669H75.7186V15.768L69.1333 3.93359Z" fill="#0F0E0E"/>
<path d="M59.1651 14.0978V19.3946H68.7805V22.0669H56.0156V3.93359H68.3988V6.60588H59.1651V11.4494H66.7763V14.0978H59.1651Z" fill="#0F0E0E"/>
<path d="M41.0377 3.93359V11.2108H49.0545V3.93359H52.204V22.0669H49.0545V13.8831H41.0377V22.0669H37.8882V3.93359H41.0377Z" fill="#0F0E0E"/>
</g>
<defs>
<clipPath id="clip0_581_2284">
<rect width="190" height="26" fill="white"/>
</clipPath>
</defs>
</svg>
